<svg width="33" height="33" viewBox="0 0 33 33" fill="none" xmlns="http://www.w3.org/2000/svg">
<path d="M0.761211 10.0888C1.04261 9.45922 1.67154 9.01909 2.40569 9.01909H3.00696V7.81654L10.8241 5.41145L10.8421 5.48361C11.1843 6.85451 12.4163 7.81654 13.8299 7.81654V9.01909H14.4311C15.1647 9.01909 15.7936 9.45862 16.075 10.0876L16.2211 9.76347C16.6288 8.86276 16.8356 7.90433 16.8356 6.91464C16.8356 3.10197 13.7337 0 9.921 0H6.91464C3.10197 0 0 3.10197 0 6.91464C0 7.90433 0.206838 8.86276 0.613899 9.76407L0.761211 10.0888Z" fill="url(#paint0_linear)"/>
<path d="M24.0509 21.6463H25.2534C25.9167 21.6463 26.456 22.1856 26.456 22.8488H27.6585C27.6585 21.5224 26.5799 20.4438 25.2534 20.4438V19.2412H24.0509V20.4438C22.7245 20.4438 21.6458 21.5224 21.6458 22.8488C21.6458 24.1753 22.7245 25.2539 24.0509 25.2539H25.2534C25.9167 25.2539 26.456 25.7933 26.456 26.4565C26.456 27.1197 25.9167 27.659 25.2534 27.659H24.0509C23.3877 27.659 22.8484 27.1197 22.8484 26.4565V25.8552H21.6458V26.4565C21.6458 27.7829 22.7245 28.8616 24.0509 28.8616V30.0641H25.2534V28.8616C26.5799 28.8616 27.6585 27.7829 27.6585 26.4565C27.6585 25.1301 26.5799 24.0514 25.2534 24.0514H24.0509C23.3877 24.0514 22.8484 23.5121 22.8484 22.8488C22.8484 22.1856 23.3877 21.6463 24.0509 21.6463Z" fill="#fff"/>
<path d="M29.8622 19.0922L27.8726 17.3516L30.7858 13.4679C31.0954 13.0543 31.2662 12.542 31.2662 12.0255C31.2662 10.6991 30.1875 9.6204 28.8611 9.6204C28.0614 9.6204 27.6369 10.1056 27.3555 10.4267C27.0933 10.7261 26.9887 10.8229 26.7548 10.8229C26.5203 10.8229 26.4163 10.7261 26.1536 10.4267C25.8722 10.1056 25.4477 9.6204 24.6486 9.6204C23.8501 9.6204 23.4256 10.1062 23.1442 10.4273C22.8832 10.7261 22.7786 10.8229 22.5453 10.8229C22.312 10.8229 22.208 10.7261 21.9471 10.4273C21.6663 10.1062 21.2418 9.6204 20.4433 9.6204C19.1169 9.6204 18.0382 10.6991 18.0382 12.0255C18.0382 12.542 18.2089 13.0543 18.5192 13.4685L21.4318 17.3516L19.4422 19.0922C17.9841 20.3681 17.0749 22.1431 16.8777 24.0509H15.0318V23.4497C15.0318 20.8456 13.5148 18.5944 11.322 17.5163C12.9833 16.7304 14.184 15.1287 14.3951 13.228H14.4311C15.7576 13.228 16.8362 12.1494 16.8362 10.8229C16.8362 9.49654 15.7576 8.41785 14.4311 8.41785V7.21531H13.8299C12.6899 7.21531 11.7008 6.44327 11.4248 5.33633L11.251 4.65088L2.40509 7.37224V8.41785C1.07868 8.41785 0.000601301 9.49714 0.000601301 10.8229C0.000601301 12.1494 1.07928 13.228 2.40569 13.228H2.44057C2.65161 15.1287 3.85235 16.731 5.51367 17.5163C3.32083 18.5944 1.80382 20.8456 1.80382 23.4497V23.98L0.870042 24.4466C0.333706 24.7147 0 25.2547 0 25.8548C0 26.4548 0.333706 26.9948 0.870042 27.2629L6.01273 29.834V27.6586H17.3828C18.5078 30.4725 21.2568 32.4688 24.4676 32.4688H24.8362C29.0451 32.4688 32.4687 29.0451 32.4687 24.8362C32.4687 22.6355 31.5187 20.5419 29.8622 19.0922ZM14.4311 9.6204C15.0943 9.6204 15.6337 10.1597 15.6337 10.8229C15.6337 11.4861 15.0943 12.0255 14.4311 12.0255V9.6204ZM2.40509 12.0255C1.74249 12.0255 1.20315 11.4861 1.20315 10.8229C1.20315 10.1597 1.74249 9.621 2.40509 9.6204V12.0255ZM3.60764 12.6268V8.26092L10.4345 6.16067C10.9233 7.32955 11.9798 8.16412 13.2286 8.36915L13.228 12.6268C13.228 14.9477 11.3394 16.8357 9.01909 16.8357H7.81654C5.49623 16.8357 3.60764 14.9477 3.60764 12.6268ZM10.5818 18.4928L10.0575 19.8228L8.73048 18.0538C9.38466 18.0917 10.0094 18.242 10.5818 18.4928ZM8.10515 18.0538L6.77815 19.8228L6.25384 18.4928C6.82625 18.242 7.45097 18.0917 8.10515 18.0538ZM5.20341 19.1067L6.44985 22.2664L7.81654 20.4433V22.8484H9.01909V20.4433L10.3858 22.2664L11.6322 19.1067C12.9622 20.0934 13.8293 21.6705 13.8293 23.4497V24.0509H6.01273V21.8755L3.00997 23.3769C3.03342 21.6272 3.89204 20.0801 5.20341 19.1067ZM4.81018 26.456V27.8883L1.40818 26.1873C1.28131 26.1235 1.20255 25.9967 1.20255 25.8548C1.20255 25.7129 1.28131 25.586 1.40818 25.5223L4.81018 23.8213V25.2535H16.8567C16.8789 25.6636 16.9276 26.0658 17.0124 26.456H4.81018ZM19.4812 12.747C19.3261 12.5402 19.2407 12.284 19.2407 12.0255C19.2407 11.3623 19.7801 10.8229 20.4433 10.8229C20.6766 10.8229 20.7806 10.9197 21.0415 11.2186C21.3223 11.5397 21.7468 12.0255 22.5453 12.0255C23.3438 12.0255 23.7683 11.5397 24.0497 11.2186C24.3113 10.9197 24.4153 10.8229 24.6486 10.8229C24.8825 10.8229 24.9871 10.9197 25.2492 11.2192C25.5306 11.5403 25.9551 12.0255 26.7548 12.0255C27.5539 12.0255 27.9784 11.5403 28.2598 11.2192C28.5226 10.9197 28.6266 10.8229 28.8611 10.8229C29.5243 10.8229 30.0636 11.3623 30.0636 12.0255C30.0636 12.284 29.9783 12.5402 29.8237 12.747L26.7566 16.8357H22.5477L19.4812 12.747ZM24.8368 31.2662H24.4682C20.9225 31.2662 18.0382 28.3819 18.0382 24.8362C18.0382 22.9825 18.8385 21.2183 20.2334 19.9972L22.4732 18.0382H26.8312L29.0709 19.9972C30.4659 21.2183 31.2662 22.9825 31.2662 24.8362C31.2662 28.3819 28.3819 31.2662 24.8368 31.2662Z" fill="#fff"/>
<path d="M10.8235 10.2221C11.1554 10.2221 11.4247 10.492 11.4247 10.8233H12.6273C12.6273 9.82884 11.818 9.01953 10.8235 9.01953C9.82896 9.01953 9.01965 9.82884 9.01965 10.8233H10.2222C10.2222 10.492 10.4916 10.2221 10.8235 10.2221Z" fill="#fff"/>
<path d="M6.01343 10.2221C6.34533 10.2221 6.6147 10.492 6.6147 10.8233H7.81725C7.81725 9.82884 7.00793 9.01953 6.01343 9.01953C5.01892 9.01953 4.20961 9.82884 4.20961 10.8233H5.41216C5.41216 10.492 5.68153 10.2221 6.01343 10.2221Z" fill="#fff"/>
<path d="M11.4242 12.6272V12.0259H5.41145V12.6272C5.41145 14.2849 6.76011 15.6335 8.41782 15.6335C10.0755 15.6335 11.4242 14.2849 11.4242 12.6272ZM6.71682 13.2284H10.1188C9.87049 13.9283 9.20188 14.431 8.41782 14.431C7.63376 14.431 6.96514 13.9283 6.71682 13.2284Z" fill="#fff"/>
<defs>
<linearGradient id="paint0_linear" x1="11.8036" y1="9.04747" x2="4.02625" y2="-2.51277" gradientUnits="userSpaceOnUse">
<stop stop-color="#570DF8"/>
<stop offset="1" stop-color="#570DF8"/>
</linearGradient>
</defs>
</svg>
